<?xml version="1.0" encoding="utf-8"?>
<!-- Generator: Adobe Illustrator 25.4.1, SVG Export Plug-In . SVG Version: 6.00 Build 0)  -->
<svg version="1.1" id="Layer_1" xmlns="http://www.w3.org/2000/svg" xmlns:xlink="http://www.w3.org/1999/xlink" x="0px" y="0px"
	 viewBox="0 0 197.62 56.23" style="enable-background:new 0 0 197.62 56.23;" xml:space="preserve">
<style type="text/css">
	.st0{fill:#FFFFFF;}
	.st1{fill:url(#SVGID_1_);}
	.st2{fill:url(#SVGID_00000179607494326573751310000002460600011257569949_);}
	.st3{fill:url(#SVGID_00000143598536058802674020000004928413069450635161_);}
	.st4{fill:url(#SVGID_00000104705326534113926520000002576613023790631336_);}
	.st5{fill:url(#SVGID_00000039109516404170964060000006058264422924035456_);}
	.st6{fill:url(#SVGID_00000155136135600043378740000003236359363582643364_);}
	.st7{fill:url(#SVGID_00000129185433605812863330000013349835118845463990_);}
	.st8{fill:url(#SVGID_00000034775449428525544980000003148105133571432839_);}
	.st9{fill:url(#SVGID_00000163786047386387537870000000774911390013991587_);}
	.st10{fill:url(#SVGID_00000013872061256372159660000008951964231503953838_);}
	.st11{fill:url(#SVGID_00000016755942682140070820000014141854233511022509_);}
	.st12{fill:url(#SVGID_00000079486494090936648930000014195279409669160091_);}
	.st13{fill:url(#SVGID_00000105409251944476354020000001311929154900008838_);}
	.st14{fill:url(#SVGID_00000014635030897891028190000018445852458984122557_);}
	.st15{fill:url(#SVGID_00000069361575076138654910000011162660560794572950_);}
	.st16{fill:url(#SVGID_00000039125018332259482310000010700986568260319166_);}
	.st17{fill:url(#SVGID_00000047042653301422399930000010327840058626172339_);}
	.st18{fill:url(#SVGID_00000060737030943900629700000010150005743808392323_);}
	.st19{fill:url(#SVGID_00000142867312715069160060000009079210514876677272_);}
	.st20{fill:url(#SVGID_00000075877272444157284310000013958219989743154611_);}
	.st21{fill:url(#SVGID_00000115514265031093545790000006679740208003402658_);}
	.st22{fill:url(#SVGID_00000027566315387354517560000000329404983738410378_);}
	.st23{fill:url(#SVGID_00000005261373978578235530000013851365875830419631_);}
	.st24{fill:url(#SVGID_00000183969546360118285560000012930187048626443167_);}
	.st25{fill:url(#SVGID_00000173152992795636720060000002367059603163281314_);}
	.st26{fill:url(#SVGID_00000124882162103889980450000012455288385709338553_);}
</style>
<g>
	<g>
		<g>
			<path class="st0" d="M18.69,42.08c-0.27,0.33-0.61,0.5-1.01,0.53c-0.51,0.03-1.12,0.05-1.81,0.05h-0.02
				c-0.43,0-0.91-0.02-1.44-0.05c-0.41-0.03-0.77-0.22-1.06-0.59c-0.18-0.24-0.3-0.54-0.33-0.9h0.49c0.04,0.55,0.5,0.98,1.05,0.99
				c0.3,0.01,0.72,0.01,1.27,0.01c-0.24,0,0.03,0.01,0.81,0.03c0.38,0.01,0.68-0.01,0.93-0.05c0.32-0.06,0.56-0.16,0.7-0.33
				c0.2-0.21,0.3-0.47,0.3-0.78c0-0.76-0.39-1.14-1.15-1.14H14.5c-0.39-0.05-0.7-0.18-0.96-0.42c-0.28-0.26-0.41-0.57-0.41-0.95
				s0.13-0.69,0.39-0.95c0.26-0.27,0.58-0.41,0.95-0.41c0.65-0.01,1.21-0.02,1.68-0.02h0.02c0.27,0,0.73,0.01,1.38,0.02
				c0.38,0.01,0.69,0.14,0.95,0.41c0.26,0.26,0.39,0.58,0.39,0.95c0,0.04,0,0.08-0.01,0.13h-0.53c0.01-0.05,0.01-0.09,0.01-0.14
				c0-0.5-0.4-0.86-0.9-0.87c-0.28-0.01-0.77-0.01-1.48-0.01c0.18,0-0.05-0.01-0.69-0.02c-0.32-0.01-0.59,0.01-0.8,0.04
				c-0.28,0.04-0.48,0.12-0.61,0.24c-0.17,0.16-0.26,0.37-0.26,0.61c0,0.25,0.09,0.45,0.25,0.62c0.34,0.32,0.85,0.26,1.43,0.26h0.65
				c1.48,0,1.82-0.01,1.04-0.02c0.9,0.01,1.51,0.27,1.83,0.76c0.16,0.26,0.25,0.56,0.25,0.9C19.08,41.4,18.95,41.77,18.69,42.08z"/>
			<path class="st0" d="M29.76,39.92c0,0.73,0,1.13-0.01,1.19c-0.05,0.4-0.19,0.73-0.43,1.01c-0.26,0.3-0.59,0.46-0.96,0.49
				c-0.5,0.03-1.11,0.05-1.81,0.05h-0.02c-0.4,0-0.89-0.02-1.44-0.05c-0.36-0.02-0.67-0.16-0.94-0.42
				c-0.26-0.27-0.41-0.59-0.42-0.94c-0.03-0.45-0.04-0.87-0.04-1.25v-0.07c0-0.68,0.01-1.07,0.02-1.19c0.05-0.4,0.19-0.74,0.43-1.02
				c0.25-0.29,0.57-0.44,0.95-0.47c0.57-0.04,1.05-0.06,1.44-0.06c0.57,0,1.18,0.02,1.83,0.06c0.36,0.02,0.67,0.16,0.94,0.43
				c0.27,0.26,0.41,0.57,0.43,0.93c0.02,0.35,0.03,0.76,0.03,1.25V39.92z M29.25,38.8c0-0.59-0.47-1.08-1.06-1.09
				c-0.32-0.01-0.88-0.01-1.68-0.01h-0.06c-0.8,0-1.15,0-1.04-0.01c-0.84,0.05-1.23,0.53-1.23,1.11v2.23c0,0.29,0.11,0.54,0.31,0.75
				c0.2,0.21,0.45,0.32,0.74,0.33c0.32,0.01,0.74,0.01,1.28,0.01c0.8,0,1.36,0,1.68-0.01c0.29-0.01,0.54-0.12,0.74-0.33
				c0.21-0.21,0.32-0.46,0.32-0.75V38.8z"/>
			<path class="st0" d="M40.02,42.62c-0.32,0.01-1.27,0.02-2.85,0.01l-2.86-0.01v-0.03H34.3v-5.44h0.46v4.94h5.26V42.62z"/>
			<path class="st0" d="M51.01,39.91c0,0.68-0.01,1.07-0.02,1.19c-0.05,0.4-0.18,0.73-0.42,1.01c-0.26,0.3-0.58,0.46-0.96,0.49
				c-0.51,0.03-1.12,0.05-1.82,0.05h-0.01c-0.4,0-0.89-0.02-1.44-0.05c-0.36-0.02-0.67-0.16-0.94-0.42
				c-0.26-0.27-0.41-0.59-0.42-0.94c-0.03-0.45-0.04-0.89-0.04-1.32c0-1.52,0.01-2.43,0.02-2.72h0.48v3.83
				c0,0.29,0.11,0.54,0.31,0.75c0.21,0.21,0.46,0.32,0.75,0.33c0.32,0.01,0.74,0.01,1.27,0.01c0.81,0,1.37,0,1.68-0.01
				c0.29-0.01,0.54-0.12,0.74-0.33c0.21-0.21,0.32-0.46,0.32-0.75v-3.83h0.49c0.01,0.27,0.02,1.17,0.02,2.68V39.91z"/>
			<path class="st0" d="M61.49,37.63h-2.7v4.99h-0.46v-4.99h-2.77v-0.46h5.93V37.63z"/>
			<path class="st0" d="M66.69,42.62H66.2c-0.01-0.26-0.01-1.15-0.01-2.67V37.2h0.5V42.62z"/>
			<path class="st0" d="M77.61,39.92c0,0.73,0,1.13-0.01,1.19c-0.05,0.4-0.19,0.73-0.43,1.01c-0.26,0.3-0.59,0.46-0.96,0.49
				c-0.5,0.03-1.11,0.05-1.81,0.05h-0.02c-0.4,0-0.89-0.02-1.44-0.05c-0.36-0.02-0.67-0.16-0.94-0.42
				c-0.26-0.27-0.41-0.59-0.42-0.94c-0.03-0.45-0.04-0.87-0.04-1.25v-0.07c0-0.68,0.01-1.07,0.02-1.19c0.05-0.4,0.19-0.74,0.43-1.02
				c0.25-0.29,0.57-0.44,0.95-0.47c0.57-0.04,1.05-0.06,1.44-0.06c0.57,0,1.18,0.02,1.83,0.06c0.36,0.02,0.67,0.16,0.94,0.43
				c0.27,0.26,0.41,0.57,0.43,0.93c0.02,0.35,0.03,0.76,0.03,1.25V39.92z M77.1,38.8c0-0.59-0.47-1.08-1.06-1.09
				c-0.32-0.01-0.88-0.01-1.68-0.01H74.3c-0.8,0-1.15,0-1.04-0.01c-0.84,0.05-1.23,0.53-1.23,1.11v2.23c0,0.29,0.11,0.54,0.31,0.75
				c0.2,0.21,0.45,0.32,0.74,0.33c0.32,0.01,0.74,0.01,1.28,0.01c0.8,0,1.36,0,1.68-0.01c0.29-0.01,0.54-0.12,0.74-0.33
				c0.21-0.21,0.32-0.46,0.32-0.75V38.8z"/>
			<path class="st0" d="M88.59,39.93l-0.01,2.7h-0.51V38.8c0-0.29-0.11-0.54-0.31-0.75c-0.2-0.21-0.45-0.32-0.74-0.33
				c-0.32-0.01-1.01-0.01-2.06-0.01h-0.05c-0.78,0-1.13,0-1.03-0.01c-0.82,0.05-1.23,0.52-1.23,1.1v3.83h-0.49
				c-0.01-0.24-0.01-1.12-0.01-2.62v-0.08c0-0.13,0-0.3,0.01-0.54c0.01-0.24,0.01-0.42,0.01-0.55V37.2h0.46v0.48
				c0.27-0.27,0.58-0.41,0.93-0.44c0.53-0.04,1-0.06,1.42-0.06c0.94,0,1.69,0.02,2.22,0.06c0.36,0.03,0.67,0.17,0.94,0.44
				c0.27,0.27,0.41,0.58,0.43,0.94c0.03,0.36,0.04,0.78,0.04,1.28V39.93z"/>
			<path class="st0" d="M98.76,42.08c-0.27,0.33-0.61,0.5-1.01,0.53c-0.51,0.03-1.12,0.05-1.81,0.05h-0.02
				c-0.43,0-0.91-0.02-1.44-0.05c-0.41-0.03-0.77-0.22-1.06-0.59c-0.18-0.24-0.3-0.54-0.33-0.9h0.49c0.04,0.55,0.5,0.98,1.05,0.99
				c0.3,0.01,0.72,0.01,1.27,0.01c-0.24,0,0.03,0.01,0.81,0.03c0.38,0.01,0.68-0.01,0.93-0.05c0.32-0.06,0.56-0.16,0.7-0.33
				c0.2-0.21,0.3-0.47,0.3-0.78c0-0.76-0.39-1.14-1.15-1.14h-2.92c-0.39-0.05-0.7-0.18-0.96-0.42c-0.28-0.26-0.41-0.57-0.41-0.95
				s0.13-0.69,0.39-0.95c0.26-0.27,0.58-0.41,0.95-0.41c0.65-0.01,1.21-0.02,1.68-0.02h0.02c0.27,0,0.73,0.01,1.38,0.02
				c0.38,0.01,0.69,0.14,0.95,0.41c0.26,0.26,0.4,0.58,0.4,0.95c0,0.04,0,0.08-0.01,0.13h-0.53c0.01-0.05,0.01-0.09,0.01-0.14
				c0-0.5-0.4-0.86-0.9-0.87c-0.28-0.01-0.77-0.01-1.48-0.01c0.18,0-0.05-0.01-0.69-0.02c-0.32-0.01-0.59,0.01-0.8,0.04
				c-0.28,0.04-0.48,0.12-0.61,0.24c-0.17,0.16-0.26,0.37-0.26,0.61c0,0.25,0.09,0.45,0.25,0.62c0.34,0.32,0.85,0.26,1.43,0.26h0.65
				c1.48,0,1.82-0.01,1.04-0.02c0.9,0.01,1.51,0.27,1.83,0.76c0.16,0.26,0.25,0.56,0.25,0.9C99.15,41.4,99.02,41.77,98.76,42.08z"/>
		</g>
	</g>
	<g>
		<path class="st0" d="M20.21,34.6c-2.91,0-4.54-1.22-5.33-2.02c-1.53-1.53-1.99-3.65-1.99-6.66c0-2.42,0.18-5.15,1.91-7.02
			c0.92-1,2.65-2.17,5.49-2.17h6.84v1.22h-6.25c-1.33,0-3.7,0.15-5.18,2.07c-1.22,1.58-1.33,3.93-1.33,5.92c0,1.4,0,3.62,1.17,5.26
			c1.51,2.09,4.11,2.17,4.95,2.17h6.91v1.22H20.21z"/>
		<path class="st0" d="M29.7,25.72c0-1.38,0.18-2.58,1.2-3.55c0.56-0.54,1.51-1.1,3.32-1.1h0.92v1.2h-0.82
			c-0.74,0-1.86,0.08-2.6,0.94c-0.56,0.69-0.69,1.71-0.69,2.81v8.57H29.7V25.72z"/>
		<path class="st0" d="M40.83,34.6c-1.1,0-2.53-0.28-3.57-1.66c-1.05-1.35-1.1-3.06-1.1-5.05c0-1.89,0.1-4.18,1.81-5.61
			c1.22-1.02,2.88-1.2,4.24-1.2c0.94,0,2.35,0.13,3.44,0.77c0.54,0.33,2.17,1.45,2.17,4.29c0,0.38-0.03,1.3-0.56,1.76
			c-0.41,0.36-1.05,0.41-1.43,0.41h-8.24c-0.03,0.79,0.03,2.04,0.23,2.76c0.31,1.1,1.22,2.35,3.01,2.35h6.63v1.2H40.83z M45.83,27.1
			c0.59,0,0.56-0.71,0.56-0.89c0-1.33-0.46-2.22-0.92-2.76c-0.97-1.15-2.3-1.17-3.5-1.17c-1.35,0-2.81,0.05-3.75,1.63
			c-0.54,0.89-0.61,1.86-0.64,3.19H45.83z"/>
		<path class="st0" d="M57.52,21.08c0.92,0,1.84,0.36,2.37,0.94c0.71,0.77,0.82,1.89,0.82,2.7v8.09c0,0.36-0.03,1-0.46,1.4
			c-0.41,0.38-1.07,0.38-1.53,0.38h-5.2c-0.77,0-1.71-0.03-2.45-0.61c-1.12-0.92-1.2-2.76-1.2-3.57c0-1.1,0.15-2.37,1.12-3.19
			c0.74-0.61,1.76-0.71,2.53-0.71h5.87V24.5c0-0.43-0.18-1.2-0.51-1.61c-0.28-0.33-0.79-0.61-1.43-0.61h-6.56v-1.2H57.52z
			 M53.2,27.71c-0.79,0-1.28,0.38-1.48,0.66c-0.33,0.43-0.43,1.15-0.43,2.09c0,0.82,0.08,1.79,0.54,2.35
			c0.28,0.33,0.77,0.59,1.33,0.59h5.46c0.15,0,0.41,0,0.59-0.15c0.18-0.15,0.18-0.28,0.18-0.46v-5.08H53.2z"/>
		<path class="st0" d="M68.79,34.6c-1.15,0-2.42,0.05-3.27-0.79c-0.84-0.82-0.92-2.14-0.92-3.75v-7.78h-1.86v-1.2h1.86v-4.34h1.33
			v4.34h3.72v1.2h-3.72v7.5c0,1.15-0.08,2.7,0.77,3.29c0.31,0.2,0.89,0.33,2.4,0.33h0.71v1.2H68.79z"/>
		<path class="st0" d="M71.86,18.63v-1.89h1.43v1.89H71.86z M71.91,21.08h1.33V34.6h-1.33V21.08z"/>
		<path class="st0" d="M80.53,32.87c0.08,0.18,0.25,0.56,0.38,0.56c0.13,0,0.31-0.38,0.38-0.56l4.36-11.79h1.35l-4.69,12.5
			c-0.36,0.97-0.89,1.17-1.4,1.17c-0.51,0-1.05-0.2-1.4-1.17l-4.69-12.5h1.35L80.53,32.87z"/>
		<path class="st0" d="M92.7,34.6c-1.1,0-2.53-0.28-3.57-1.66c-1.05-1.35-1.1-3.06-1.1-5.05c0-1.89,0.1-4.18,1.81-5.61
			c1.22-1.02,2.88-1.2,4.24-1.2c0.94,0,2.35,0.13,3.44,0.77c0.54,0.33,2.17,1.45,2.17,4.29c0,0.38-0.03,1.3-0.56,1.76
			c-0.41,0.36-1.05,0.41-1.43,0.41h-8.24c-0.03,0.79,0.03,2.04,0.23,2.76c0.31,1.1,1.22,2.35,3.01,2.35h6.63v1.2H92.7z M97.7,27.1
			c0.59,0,0.56-0.71,0.56-0.89c0-1.33-0.46-2.22-0.92-2.76c-0.97-1.15-2.3-1.17-3.5-1.17c-1.35,0-2.81,0.05-3.75,1.63
			c-0.54,0.89-0.61,1.86-0.64,3.19H97.7z"/>
		<path class="st0" d="M140.21,34.6V17.97h-7.48v-1.22h16.33v1.22h-7.48V34.6H140.21z"/>
		<path class="st0" d="M151.95,34.6c-1.1,0-2.53-0.28-3.57-1.66c-1.05-1.35-1.1-3.06-1.1-5.05c0-1.89,0.1-4.18,1.81-5.61
			c1.22-1.02,2.88-1.2,4.24-1.2c0.94,0,2.35,0.13,3.44,0.77c0.54,0.33,2.17,1.45,2.17,4.29c0,0.38-0.03,1.3-0.56,1.76
			c-0.41,0.36-1.05,0.41-1.43,0.41h-8.24c-0.03,0.79,0.03,2.04,0.23,2.76c0.31,1.1,1.22,2.35,3.01,2.35h6.63v1.2H151.95z
			 M156.95,27.1c0.59,0,0.56-0.71,0.56-0.89c0-1.33-0.46-2.22-0.92-2.76c-0.97-1.15-2.3-1.17-3.5-1.17c-1.35,0-2.81,0.05-3.75,1.63
			c-0.54,0.89-0.61,1.86-0.64,3.19H156.95z"/>
		<path class="st0" d="M166.18,34.6c-1.91,0-3.19-0.77-3.98-1.71c-1.07-1.28-1.22-2.88-1.22-4.87c0-1.84,0.1-3.98,1.53-5.43
			c0.79-0.79,2.09-1.5,4.21-1.5h4.57v1.2h-4.72c-2.17,0-3.5,1.15-3.9,2.76c-0.18,0.74-0.26,2.5-0.26,3.16
			c0,0.89,0.13,2.42,0.46,3.19c0.79,1.79,2.76,2.02,3.98,2.02h4.75v1.2H166.18z"/>
		<path class="st0" d="M174.15,16.74h1.33v4.34h4.95c1.35,0,2.37,0.25,3.14,0.97c0.97,0.92,1.17,2.22,1.17,3.57v8.98h-1.33v-9.13
			c0-0.59-0.05-1.66-0.66-2.37c-0.64-0.74-1.45-0.82-2.19-0.82h-5.08V34.6h-1.33V16.74z"/>
	</g>
	<g>
		<radialGradient id="SVGID_1_" cx="122.5754" cy="31.7341" r="15.274" gradientUnits="userSpaceOnUse">
			<stop  offset="0.1854" style="stop-color:#FFFFFF"/>
			<stop  offset="0.3204" style="stop-color:#F8F8F8"/>
			<stop  offset="0.5107" style="stop-color:#E6E6E6"/>
			<stop  offset="0.6292" style="stop-color:#D7D7D7"/>
			<stop  offset="1" style="stop-color:#FFFFFF"/>
		</radialGradient>
		<path class="st1" d="M133.4,36.51c-2.03-2.84-6.78-3.88-7.35-4c-1-0.21-2.55-0.33-2.55-0.33l3.2,3.45c0,0-1.47-2.16,1.21-1
			c2.68,1.16,4.02,3.92,2.14,5.77c-1.88,1.86-4.72,2.17-4.72,2.17l0.49,2.94c0,0,3.74-0.52,5.98-2.04
			C134.04,41.95,135.44,39.35,133.4,36.51z M118.24,40.43c-0.08,1.19-2.33,1.12-3.58-1.34c-1.03-2.01,0.88-3.82,2.4-4.62
			c1.52-0.8,3.77-1,3.77-1l-0.05-1.29c0,0-1.25,0.03-3.24,0.44c-2.36,0.49-6.64,2.61-6.67,5.64c-0.03,3.03,2.61,4.89,4.95,5.95
			c2.34,1.06,5.61,1.34,5.61,1.34l-3.36-6.39C118.05,39.17,118.28,39.78,118.24,40.43z"/>
		<g>
			
				<radialGradient id="SVGID_00000066486203393517813450000012417914654234627510_" cx="123.3428" cy="4.1803" r="40.0941" gradientUnits="userSpaceOnUse">
				<stop  offset="5.617980e-03" style="stop-color:#FFFFFF"/>
				<stop  offset="0.0395" style="stop-color:#F6FAF1"/>
				<stop  offset="0.1035" style="stop-color:#DFEECC"/>
				<stop  offset="0.1067" style="stop-color:#DEEDCA"/>
				<stop  offset="0.1712" style="stop-color:#D0E4A5"/>
				<stop  offset="0.2644" style="stop-color:#BDD977"/>
				<stop  offset="0.3471" style="stop-color:#B0D155"/>
				<stop  offset="0.4154" style="stop-color:#A8CC40"/>
				<stop  offset="0.4607" style="stop-color:#A5CA39"/>
				<stop  offset="0.5517" style="stop-color:#8FBB3D"/>
				<stop  offset="0.7079" style="stop-color:#6EA342"/>
				<stop  offset="1" style="stop-color:#000000"/>
			</radialGradient>
			<path style="fill:url(#SVGID_00000066486203393517813450000012417914654234627510_);" d="M123.71,2.96l0.12,2.9
				c0,0-5.05,0.46-8.48,2.26c-3.42,1.8-7.7,5.85-5.4,10.39c2.82,5.55,7.89,5.7,8.07,3.02c0.1-1.45-0.41-2.84-0.41-2.84l7.54,14.37
				c0,0-7.35-0.61-12.61-3.02c-5.26-2.4-11.22-6.58-11.14-13.39c0.08-6.81,9.7-11.59,15.01-12.69
				C120.91,3.04,123.71,2.96,123.71,2.96z"/>
			
				<linearGradient id="SVGID_00000096740225819148682700000006892390330845465221_" gradientUnits="userSpaceOnUse" x1="101.3955" y1="27.3035" x2="125.1609" y2="27.3035">
				<stop  offset="0.0225" style="stop-color:#000000"/>
				<stop  offset="0.0986" style="stop-color:#030502"/>
				<stop  offset="0.1883" style="stop-color:#0D1308"/>
				<stop  offset="0.2847" style="stop-color:#1D2B11"/>
				<stop  offset="0.386" style="stop-color:#334C1F"/>
				<stop  offset="0.4898" style="stop-color:#507630"/>
				<stop  offset="0.5843" style="stop-color:#6EA342"/>
				<stop  offset="1" style="stop-color:#13180E"/>
			</linearGradient>
			<path style="fill:url(#SVGID_00000096740225819148682700000006892390330845465221_);" d="M112.55,30.04
				c-5.06-2.31-10.77-6.27-11.12-12.63c0,0.01-0.29,2.73,0.87,6.39c0.75,2.36,4.46,8.74,13.81,11.6c6.44,1.98,8.88,1.8,8.88,1.8
				l0.17-4.14C125.16,33.06,117.81,32.44,112.55,30.04z"/>
			
				<linearGradient id="SVGID_00000134232339852597041120000008439825868201620654_" gradientUnits="userSpaceOnUse" x1="123.7161" y1="12.0634" x2="110.1581" y2="12.0634">
				<stop  offset="0" style="stop-color:#DEEDCA"/>
				<stop  offset="0.0532" style="stop-color:#D0E4A5"/>
				<stop  offset="0.1301" style="stop-color:#BDD977"/>
				<stop  offset="0.1984" style="stop-color:#B0D155"/>
				<stop  offset="0.2547" style="stop-color:#A8CC40"/>
				<stop  offset="0.2921" style="stop-color:#A5CA39"/>
				<stop  offset="0.3915" style="stop-color:#8FBB3D"/>
				<stop  offset="0.5618" style="stop-color:#6EA342"/>
				<stop  offset="1" style="stop-color:#000000"/>
			</linearGradient>
			<path style="fill:url(#SVGID_00000134232339852597041120000008439825868201620654_);" d="M109.85,18.27
				c1.23-4.27,5.2-6.78,9.27-8.1c1.99-0.65,4.66-1,4.66-0.99l0.06-3.31c0,0-5.05,0.46-8.48,2.26
				C111.99,9.89,107.81,13.83,109.85,18.27z"/>
			
				<radialGradient id="SVGID_00000080203660894325057050000012858862374115047343_" cx="129.4715" cy="8.8265" r="41.309" gradientUnits="userSpaceOnUse">
				<stop  offset="5.617980e-03" style="stop-color:#FFFFFF"/>
				<stop  offset="0.0584" style="stop-color:#F6FAF1"/>
				<stop  offset="0.1578" style="stop-color:#DFEECC"/>
				<stop  offset="0.1629" style="stop-color:#DEEDCA"/>
				<stop  offset="0.1979" style="stop-color:#D8E9BA"/>
				<stop  offset="0.2662" style="stop-color:#C7DF90"/>
				<stop  offset="0.3603" style="stop-color:#ADCF4E"/>
				<stop  offset="0.3876" style="stop-color:#A5CA39"/>
				<stop  offset="0.4476" style="stop-color:#8FBB3D"/>
				<stop  offset="0.5506" style="stop-color:#6EA342"/>
				<stop  offset="0.5696" style="stop-color:#65953C"/>
				<stop  offset="0.6503" style="stop-color:#416027"/>
				<stop  offset="0.7258" style="stop-color:#253716"/>
				<stop  offset="0.7937" style="stop-color:#11190A"/>
				<stop  offset="0.8518" style="stop-color:#040703"/>
				<stop  offset="0.8933" style="stop-color:#000000"/>
			</radialGradient>
			<path style="fill:url(#SVGID_00000080203660894325057050000012858862374115047343_);" d="M101.71,19.35
				c1.27,5.24,6.31,8.62,10.84,10.69c5.26,2.4,12.61,3.02,12.61,3.02l-7.54-14.37c0,0,0.5,1.39,0.41,2.84
				c-0.18,2.69-5.24,2.54-8.07-3.02c-0.59-1.17-0.75-2.3-0.6-3.38C106.42,16.3,103.83,17.72,101.71,19.35z"/>
			<g>
				
					<linearGradient id="SVGID_00000026868956884505781000000004160845924309020843_" gradientUnits="userSpaceOnUse" x1="113.1579" y1="2.3975" x2="113.3435" y2="35.6432">
					<stop  offset="5.617980e-03" style="stop-color:#D6DF27"/>
					<stop  offset="0.1451" style="stop-color:#DCE447"/>
					<stop  offset="0.7393" style="stop-color:#F5F7CA"/>
					<stop  offset="1" style="stop-color:#FFFFFF"/>
				</linearGradient>
				<path style="fill:url(#SVGID_00000026868956884505781000000004160845924309020843_);" d="M123.71,2.96c0,0-2.81,0.08-7.29,1.01
					c-5.31,1.1-14.93,5.88-15.01,12.69c0,0.04,0,0.08,0,0.12c-0.01,6.74,5.91,10.88,11.14,13.27c4.66,2.12,10.95,2.85,12.34,2.99
					l0,0c0.01,0,0.03,0,0.04,0.01l0,0c0.15,0.01,0.23,0.02,0.23,0.02l-7.54-14.37c0,0,0.03,0.08,0.07,0.22l0,0
					c0.06,0.18,0.13,0.45,0.2,0.79l0,0c0.08,0.41,0.15,0.93,0.15,1.46c0,0.12,0,0.24-0.01,0.37c-0.07,1.08-0.93,1.7-2.11,1.7
					c-1.76,0-4.26-1.38-5.95-4.71c-0.46-0.9-0.65-1.77-0.65-2.61c0-3.43,3.3-6.33,6.05-7.77c3.42-1.8,8.48-2.26,8.48-2.26
					L123.71,2.96L123.71,2.96z M124.76,32.78c-1.64-0.17-7.67-0.93-12.11-2.96c-3.16-1.44-5.68-3.11-7.5-4.99
					c-2.36-2.42-3.54-5.17-3.5-8.18c0.04-3.7,2.98-6.55,5.44-8.3c3.26-2.32,6.99-3.67,9.38-4.17c3.69-0.76,6.27-0.95,7.02-0.99
					l0.1,2.45c-1.02,0.11-5.28,0.66-8.34,2.27c-2.05,1.07-3.84,2.62-4.93,4.24c-1.43,2.14-1.63,4.37-0.56,6.46
					c1.82,3.57,4.46,4.84,6.16,4.84c1.34,0,2.27-0.75,2.34-1.91c0.03-0.42,0.01-0.83-0.04-1.21L124.76,32.78L124.76,32.78z"/>
			</g>
		</g>
		<g>
			<g>
				
					<radialGradient id="SVGID_00000152955741255592935280000014956486276861377435_" cx="109.7943" cy="1.1054" r="5.957" gradientTransform="matrix(0.9265 -0.3764 0.3764 0.9265 14.8741 58.6755)" gradientUnits="userSpaceOnUse">
					<stop  offset="5.617980e-03" style="stop-color:#FFFFFF"/>
					<stop  offset="0.0395" style="stop-color:#F6FAF1"/>
					<stop  offset="0.1035" style="stop-color:#DFEECC"/>
					<stop  offset="0.1067" style="stop-color:#DEEDCA"/>
					<stop  offset="0.1712" style="stop-color:#D0E4A5"/>
					<stop  offset="0.2644" style="stop-color:#BDD977"/>
					<stop  offset="0.3471" style="stop-color:#B0D155"/>
					<stop  offset="0.4154" style="stop-color:#A8CC40"/>
					<stop  offset="0.4607" style="stop-color:#A5CA39"/>
					<stop  offset="0.5517" style="stop-color:#8FBB3D"/>
					<stop  offset="0.7079" style="stop-color:#6EA342"/>
					<stop  offset="1" style="stop-color:#000000"/>
				</radialGradient>
				<path style="fill:url(#SVGID_00000152955741255592935280000014956486276861377435_);" d="M119.32,24.48
					c-0.32,0.77-0.98,1.5-1.34,2.27c1.27-1.72,1.52-3.65,1.01-5.58c-0.58-2.21-1.67-3.9-3.42-5.6c-0.79-0.77-1.69-1.5-2.31-2.09
					l0.52-2.55c0.67,0.59,1.46,1.32,2.25,2.16c0.82,0.87,1.63,1.86,2.3,2.95c0.7,1.15,1.24,2.42,1.45,3.77
					C120.02,21.49,119.92,23.01,119.32,24.48z"/>
				
					<radialGradient id="SVGID_00000060007548413670107120000003380753903170840471_" cx="102.5307" cy="10.1792" r="8.7379" gradientTransform="matrix(0.9265 -0.3764 0.3764 0.9265 14.8741 58.6755)" gradientUnits="userSpaceOnUse">
					<stop  offset="5.617980e-03" style="stop-color:#FFFFFF"/>
					<stop  offset="0.0584" style="stop-color:#F6FAF1"/>
					<stop  offset="0.1578" style="stop-color:#DFEECC"/>
					<stop  offset="0.1629" style="stop-color:#DEEDCA"/>
					<stop  offset="0.1979" style="stop-color:#D8E9BA"/>
					<stop  offset="0.2662" style="stop-color:#C7DF90"/>
					<stop  offset="0.3603" style="stop-color:#ADCF4E"/>
					<stop  offset="0.3876" style="stop-color:#A5CA39"/>
					<stop  offset="0.4476" style="stop-color:#8FBB3D"/>
					<stop  offset="0.5506" style="stop-color:#6EA342"/>
					<stop  offset="0.5696" style="stop-color:#65953C"/>
					<stop  offset="0.6503" style="stop-color:#416027"/>
					<stop  offset="0.7258" style="stop-color:#253716"/>
					<stop  offset="0.7937" style="stop-color:#11190A"/>
					<stop  offset="0.8518" style="stop-color:#040703"/>
					<stop  offset="0.8933" style="stop-color:#000000"/>
				</radialGradient>
				<path style="fill:url(#SVGID_00000060007548413670107120000003380753903170840471_);" d="M123.76,22.33c0,0-0.48,2.67-2.47,5.1
					c-2.47,3.02-8.35,6.5-14.55,6.7c-1.62,0.05-2.54-0.02-4.16-0.09l0.01,0c1.64,0.08,3.28,0,4.9-0.21
					c1.59-0.21,3.14-0.56,4.63-1.04c1.45-0.47,2.82-1.06,4.09-1.77c1.23-0.69,2.36-1.48,3.37-2.37c0.32-0.28,0.63-0.57,0.92-0.87
					c0.29-0.29,0.55-0.59,0.8-0.89c0.25-0.3,0.37-0.9,0.58-1.21C122.08,25.38,123.58,22.64,123.76,22.33z"/>
				
					<radialGradient id="SVGID_00000098942853177539276440000014440683260297645956_" cx="110.586" cy="-11.6671" r="17.6681" gradientTransform="matrix(0.9265 -0.3764 0.3764 0.9265 14.8741 58.6755)" gradientUnits="userSpaceOnUse">
					<stop  offset="5.617980e-03" style="stop-color:#FFFFFF"/>
					<stop  offset="0.0584" style="stop-color:#F6FAF1"/>
					<stop  offset="0.1578" style="stop-color:#DFEECC"/>
					<stop  offset="0.1629" style="stop-color:#DEEDCA"/>
					<stop  offset="0.1979" style="stop-color:#D8E9BA"/>
					<stop  offset="0.2662" style="stop-color:#C7DF90"/>
					<stop  offset="0.3603" style="stop-color:#ADCF4E"/>
					<stop  offset="0.3876" style="stop-color:#A5CA39"/>
					<stop  offset="0.4476" style="stop-color:#8FBB3D"/>
					<stop  offset="0.5506" style="stop-color:#6EA342"/>
					<stop  offset="0.5696" style="stop-color:#65953C"/>
					<stop  offset="0.6503" style="stop-color:#416027"/>
					<stop  offset="0.7258" style="stop-color:#253716"/>
					<stop  offset="0.7937" style="stop-color:#11190A"/>
					<stop  offset="0.8518" style="stop-color:#040703"/>
					<stop  offset="0.8933" style="stop-color:#000000"/>
				</radialGradient>
				<path style="fill:url(#SVGID_00000098942853177539276440000014440683260297645956_);" d="M118.52,8.6
					c1.51,1.13,2.74,2.41,3.67,3.8c0.99,1.48,1.66,3.09,1.95,4.77c0.31,1.82,0.18,3.72-0.48,5.61c-0.72,2.05-2.05,4.08-4.09,5.88
					c-1,0.89-2.14,1.68-3.37,2.37c-1.28,0.71-2.65,1.31-4.09,1.77c-1.48,0.48-3.04,0.83-4.63,1.04c-1.61,0.21-3.26,0.28-4.9,0.21
					c1.01-0.02,2.09-0.14,3.19-0.37c1.08-0.21,2.18-0.52,3.24-0.91c1.05-0.38,2.06-0.83,3.01-1.35c0.92-0.5,1.79-1.07,2.54-1.68
					c0.02-0.02,0.04-0.03,0.06-0.05c0.02-0.02,0.04-0.03,0.06-0.05c0.02-0.02,0.04-0.04,0.06-0.05c0.02-0.02,0.04-0.04,0.06-0.05
					c2.86-2.37,4.29-4.62,4.8-6.67c0.48-1.89,0.19-3.65-0.47-5.22c-0.62-1.48-1.58-2.82-2.58-3.96c-0.96-1.09-1.97-2.03-2.79-2.76"
					/>
				<g>
					
						<linearGradient id="SVGID_00000078020925529361684280000005706883367496172968_" gradientUnits="userSpaceOnUse" x1="100.8093" y1="13.1256" x2="110.6494" y2="-8.83" gradientTransform="matrix(0.9265 -0.3764 0.3764 0.9265 14.8741 58.6755)">
						<stop  offset="0.5169" style="stop-color:#FFE2B3"/>
						<stop  offset="0.8764" style="stop-color:#FFFFFF"/>
						<stop  offset="1" style="stop-color:#FFE2B3"/>
					</linearGradient>
					<path style="fill:url(#SVGID_00000078020925529361684280000005706883367496172968_);" d="M113.78,10.93
						c0.82,0.73,1.83,1.66,2.79,2.76c1.01,1.14,1.97,2.48,2.58,3.96c0.02,0.04,0.03,0.07,0.05,0.11c0.63,1.54,0.89,3.27,0.42,5.11
						c-0.52,2.05-1.94,4.3-4.8,6.67c-0.02,0.01-0.04,0.03-0.06,0.05c-0.02,0.02-0.04,0.03-0.06,0.05c-0.02,0.01-0.04,0.03-0.06,0.05
						c-0.02,0.02-0.04,0.03-0.06,0.05c-0.76,0.61-1.62,1.17-2.54,1.68c-0.7,0.38-1.43,0.73-2.2,1.04c-0.27,0.11-0.54,0.21-0.81,0.31
						c-1.07,0.39-2.16,0.7-3.24,0.91c-1.1,0.22-2.18,0.34-3.19,0.37c0.03,0,0.07,0,0.1,0l0,0c0.38,0.02,0.77,0.02,1.15,0.02l0,0
						c1.22,0,2.44-0.08,3.64-0.24c1.59-0.21,3.14-0.56,4.63-1.04c0.55-0.18,1.09-0.37,1.62-0.59c0.85-0.35,1.68-0.75,2.47-1.19
						c1.23-0.69,2.36-1.48,3.37-2.37c2.04-1.81,3.38-3.83,4.09-5.88c0.65-1.89,0.79-3.79,0.48-5.61c-0.14-0.83-0.37-1.64-0.69-2.42
						c-0.33-0.81-0.75-1.6-1.25-2.35c-0.93-1.38-2.16-2.66-3.67-3.79l0,0l0,0 M118.48,8.51l-0.15,0.08l0.14,0.1
						c1.48,1.11,2.71,2.38,3.64,3.77c1,1.48,1.65,3.07,1.93,4.73c0.32,1.87,0.16,3.74-0.47,5.56c-0.36,1.04-0.88,2.05-1.54,3.01
						c-0.69,1-1.54,1.96-2.53,2.83c-1,0.88-2.12,1.67-3.35,2.36c-0.78,0.43-1.61,0.84-2.46,1.18c-0.52,0.21-1.06,0.41-1.61,0.59
						c-1.47,0.48-3.02,0.83-4.61,1.04c-0.88,0.12-1.77,0.19-2.67,0.22c0.32-0.05,0.66-0.11,0.99-0.17c1.09-0.22,2.19-0.53,3.26-0.92
						c0.27-0.1,0.54-0.2,0.81-0.32c0.77-0.31,1.51-0.66,2.21-1.04c0.95-0.52,1.81-1.08,2.56-1.69l0.06-0.05l0.02-0.02
						c0.01-0.01,0.03-0.02,0.05-0.03c0.02-0.02,0.04-0.03,0.06-0.05c0.02-0.02,0.04-0.04,0.06-0.05c1.38-1.13,2.49-2.3,3.3-3.47
						c0.74-1.07,1.26-2.16,1.54-3.25c0.43-1.73,0.27-3.51-0.47-5.29c-0.54-1.3-1.42-2.64-2.6-3.99c-0.96-1.1-2.01-2.06-2.8-2.77
						l-0.05-0.05l-0.07,0.03"/>
				</g>
			</g>
		</g>
		<g>
			<g>
				
					<linearGradient id="SVGID_00000082350524675509543330000003718717287259742112_" gradientUnits="userSpaceOnUse" x1="-865.3493" y1="144.8532" x2="-868.5475" y2="145.0471" gradientTransform="matrix(-0.9374 -0.3482 0.3482 -0.9374 -743.9103 -148.0744)">
					<stop  offset="0" style="stop-color:#FFFFFF"/>
					<stop  offset="0.0456" style="stop-color:#FEEDBD"/>
					<stop  offset="0.0926" style="stop-color:#FEDC80"/>
					<stop  offset="0.1357" style="stop-color:#FECF50"/>
					<stop  offset="0.1735" style="stop-color:#FDC62D"/>
					<stop  offset="0.2045" style="stop-color:#FDC018"/>
					<stop  offset="0.2247" style="stop-color:#FDBE10"/>
					<stop  offset="0.2716" style="stop-color:#F9A217"/>
					<stop  offset="0.3268" style="stop-color:#F5881E"/>
					<stop  offset="0.3596" style="stop-color:#F47E20"/>
					<stop  offset="0.4338" style="stop-color:#EA7420"/>
					<stop  offset="0.5602" style="stop-color:#CF5A1E"/>
					<stop  offset="0.7223" style="stop-color:#A42F1C"/>
					<stop  offset="0.7978" style="stop-color:#8D191B"/>
				</linearGradient>
				<polygon style="fill:url(#SVGID_00000082350524675509543330000003718717287259742112_);" points="118.93,18.59 120.63,17.64 
					122.18,18.05 120.5,19.06 				"/>
				
					<linearGradient id="SVGID_00000140007835373188492130000012744512230168238511_" gradientUnits="userSpaceOnUse" x1="-881.0726" y1="146.0333" x2="-873.0306" y2="145.452" gradientTransform="matrix(-0.9374 -0.3482 0.3482 -0.9374 -743.9103 -148.0744)">
					<stop  offset="0" style="stop-color:#FFFFFF"/>
					<stop  offset="0.0456" style="stop-color:#FEEDBD"/>
					<stop  offset="0.0926" style="stop-color:#FEDC80"/>
					<stop  offset="0.1357" style="stop-color:#FECF50"/>
					<stop  offset="0.1735" style="stop-color:#FDC62D"/>
					<stop  offset="0.2045" style="stop-color:#FDC018"/>
					<stop  offset="0.2247" style="stop-color:#FDBE10"/>
					<stop  offset="0.3048" style="stop-color:#F9A217"/>
					<stop  offset="0.3992" style="stop-color:#F5881E"/>
					<stop  offset="0.4551" style="stop-color:#F47E20"/>
					<stop  offset="0.5132" style="stop-color:#EA7420"/>
					<stop  offset="0.612" style="stop-color:#CF5A1E"/>
					<stop  offset="0.7387" style="stop-color:#A42F1C"/>
					<stop  offset="0.7978" style="stop-color:#8D191B"/>
				</linearGradient>
				<polygon style="fill:url(#SVGID_00000140007835373188492130000012744512230168238511_);" points="124.34,20.18 125.93,19.03 
					128.01,19.56 126.48,20.81 				"/>
				
					<linearGradient id="SVGID_00000068655415464591327740000004395298353229314969_" gradientUnits="userSpaceOnUse" x1="-874.1252" y1="135.2667" x2="-875.9568" y2="145.171" gradientTransform="matrix(-0.9374 -0.3482 0.3482 -0.9374 -743.9103 -148.0744)">
					<stop  offset="0.0506" style="stop-color:#FFFFFF"/>
					<stop  offset="0.1237" style="stop-color:#FFFCF8"/>
					<stop  offset="0.2313" style="stop-color:#FFF5E4"/>
					<stop  offset="0.3603" style="stop-color:#FFEAC4"/>
					<stop  offset="0.5045" style="stop-color:#FFD997"/>
					<stop  offset="0.5787" style="stop-color:#FFD07D"/>
					<stop  offset="0.7978" style="stop-color:#F47E20"/>
				</linearGradient>
				<polygon style="fill:url(#SVGID_00000068655415464591327740000004395298353229314969_);" points="126.48,20.81 128.01,19.56 
					125.32,27.12 123.9,28.4 				"/>
				
					<linearGradient id="SVGID_00000075155122967250804300000014286942281525202620_" gradientUnits="userSpaceOnUse" x1="-872.2856" y1="154.9744" x2="-873.157" y2="142.4848" gradientTransform="matrix(-0.9374 -0.3482 0.3482 -0.9374 -743.9103 -148.0744)">
					<stop  offset="0" style="stop-color:#FFFFFF"/>
					<stop  offset="0.0456" style="stop-color:#FEEDBD"/>
					<stop  offset="0.0926" style="stop-color:#FEDC80"/>
					<stop  offset="0.1357" style="stop-color:#FECF50"/>
					<stop  offset="0.1735" style="stop-color:#FDC62D"/>
					<stop  offset="0.2045" style="stop-color:#FDC018"/>
					<stop  offset="0.2247" style="stop-color:#FDBE10"/>
					<stop  offset="0.3048" style="stop-color:#F9A217"/>
					<stop  offset="0.3992" style="stop-color:#F5881E"/>
					<stop  offset="0.4551" style="stop-color:#F47E20"/>
					<stop  offset="0.5132" style="stop-color:#EA7420"/>
					<stop  offset="0.612" style="stop-color:#CF5A1E"/>
					<stop  offset="0.7387" style="stop-color:#A42F1C"/>
					<stop  offset="0.7978" style="stop-color:#8D191B"/>
					<stop  offset="1" style="stop-color:#000000"/>
				</linearGradient>
				<path style="fill:url(#SVGID_00000075155122967250804300000014286942281525202620_);" d="M128.17,9.8
					c0.57-0.27,1.31-0.34,1.91-0.58c-1.58,0.31-2.72,1.26-3.42,2.59c-0.81,1.53-1.06,3.03-0.95,4.87c0.05,0.83,0.17,1.7,0.22,2.34
					l-1.59,1.16c-0.07-0.67-0.14-1.48-0.15-2.35c-0.01-0.9,0.04-1.87,0.22-2.83c0.19-1,0.54-1.98,1.12-2.84
					C126.25,11.1,127.08,10.31,128.17,9.8z"/>
				
					<linearGradient id="SVGID_00000132069814376098527940000007365671938095289985_" gradientUnits="userSpaceOnUse" x1="-886.9567" y1="157.6086" x2="-868.7693" y2="157.6086" gradientTransform="matrix(-0.9374 -0.3482 0.3482 -0.9374 -743.9103 -148.0744)">
					<stop  offset="0" style="stop-color:#FFFFFF"/>
					<stop  offset="0.0456" style="stop-color:#FEEDBD"/>
					<stop  offset="0.0926" style="stop-color:#FEDC80"/>
					<stop  offset="0.1357" style="stop-color:#FECF50"/>
					<stop  offset="0.1735" style="stop-color:#FDC62D"/>
					<stop  offset="0.2045" style="stop-color:#FDC018"/>
					<stop  offset="0.2247" style="stop-color:#FDBE10"/>
					<stop  offset="0.3048" style="stop-color:#F9A217"/>
					<stop  offset="0.3992" style="stop-color:#F5881E"/>
					<stop  offset="0.4551" style="stop-color:#F47E20"/>
					<stop  offset="0.5132" style="stop-color:#EA7420"/>
					<stop  offset="0.612" style="stop-color:#CF5A1E"/>
					<stop  offset="0.7387" style="stop-color:#A42F1C"/>
					<stop  offset="0.7978" style="stop-color:#8D191B"/>
				</linearGradient>
				<path style="fill:url(#SVGID_00000132069814376098527940000007365671938095289985_);" d="M124.6,8.72c0,0,1.63-1.24,3.98-1.58
					c2.93-0.42,7.98,0.64,11.54,3.7c0.93,0.8,1.41,1.31,2.28,2.18l-0.01-0.01c-0.87-0.88-1.83-1.68-2.84-2.38
					c-0.99-0.7-2.04-1.3-3.11-1.79c-1.05-0.48-2.12-0.85-3.19-1.1c-1.04-0.24-2.08-0.38-3.09-0.4c-0.33-0.01-0.65,0-0.96,0.02
					c-0.31,0.02-0.61,0.05-0.9,0.08c-0.29,0.04-0.67,0.31-0.94,0.38C127.09,7.88,124.86,8.65,124.6,8.72z"/>
				
					<radialGradient id="SVGID_00000115513834153324915130000005979016644815296926_" cx="-871.7697" cy="132.9246" r="18.945" gradientTransform="matrix(-0.9374 -0.3482 0.3482 -0.9374 -743.9103 -148.0744)" gradientUnits="userSpaceOnUse">
					<stop  offset="0.1292" style="stop-color:#FFFFFF"/>
					<stop  offset="0.573" style="stop-color:#FDBE10"/>
					<stop  offset="0.9157" style="stop-color:#F47E20"/>
				</radialGradient>
				<path style="fill:url(#SVGID_00000115513834153324915130000005979016644815296926_);" d="M123.92,27.5l-5-8.91l1.58,0.46
					c-0.26-1.4-0.3-2.74-0.11-3.99c0.2-1.33,0.65-2.57,1.35-3.65c0.76-1.17,1.81-2.17,3.13-2.88c1.45-0.78,3.22-1.22,5.29-1.19
					c1.01,0.02,2.05,0.15,3.09,0.4c1.07,0.25,2.14,0.62,3.19,1.1c1.07,0.49,2.12,1.09,3.11,1.79c1.01,0.7,1.96,1.51,2.84,2.38
					c-0.58-0.51-1.25-0.99-1.96-1.42c-0.72-0.43-1.48-0.82-2.28-1.15c-0.78-0.32-1.58-0.59-2.36-0.78
					c-0.78-0.19-1.54-0.32-2.28-0.36c-0.02,0-0.04,0-0.06,0c-0.02,0-0.04,0-0.06,0c-0.02,0-0.04,0-0.06,0c-0.02,0-0.04,0-0.06,0
					c-2.81-0.15-4.75,0.38-6.08,1.27c-1.23,0.81-1.97,1.94-2.41,3.15c-0.41,1.14-0.55,2.38-0.58,3.53c-0.02,1.1,0.07,2.14,0.15,2.96
					l2.14,0.63L123.92,27.5z"/>
				
					<linearGradient id="SVGID_00000114042183811220090180000008968943593715658114_" gradientUnits="userSpaceOnUse" x1="-870.379" y1="138.566" x2="-871.405" y2="143.6278" gradientTransform="matrix(-0.9374 -0.3482 0.3482 -0.9374 -743.9103 -148.0744)">
					<stop  offset="0" style="stop-color:#FFFFFF"/>
					<stop  offset="6.607875e-03" style="stop-color:#FFFFFE"/>
					<stop  offset="0.3009" style="stop-color:#FFEFD5"/>
					<stop  offset="0.5335" style="stop-color:#FFE6BC"/>
					<stop  offset="0.6742" style="stop-color:#FFE2B3"/>
					<stop  offset="1" style="stop-color:#F8D278"/>
				</linearGradient>
				<path style="fill:url(#SVGID_00000114042183811220090180000008968943593715658114_);" d="M123.93,28.21l1.54-5.79
					c-2.01-1.39-4.14-3.69-5.16-6.49c-0.07,1-0.01,2.04,0.2,3.13l-1.58-0.46L123.93,28.21z"/>
				<g>
					
						<linearGradient id="SVGID_00000160906313753100981750000005155734712556145320_" gradientUnits="userSpaceOnUse" x1="-879.0663" y1="159.6159" x2="-870.0718" y2="139.5471" gradientTransform="matrix(-0.9374 -0.3482 0.3482 -0.9374 -743.9103 -148.0744)">
						<stop  offset="0.5169" style="stop-color:#FFE2B3"/>
						<stop  offset="0.8764" style="stop-color:#FFFFFF"/>
						<stop  offset="1" style="stop-color:#FFE2B3"/>
					</linearGradient>
					<path style="fill:url(#SVGID_00000160906313753100981750000005155734712556145320_);" d="M124.34,27.4l2.14-6.59l-0.08-0.02
						l0,0l0,0l0,0l-2.06-0.6c-0.08-0.82-0.17-1.86-0.15-2.96c0.03-1.15,0.17-2.39,0.58-3.53c0.01-0.03,0.02-0.06,0.04-0.09
						c0.44-1.18,1.18-2.27,2.38-3.07c1.34-0.88,3.27-1.41,6.08-1.27c0.02,0,0.04,0,0.06,0c0.02,0,0.04,0,0.06,0
						c0.02,0,0.04,0,0.06,0c0.02,0,0.04,0.01,0.06,0.01c0.74,0.05,1.5,0.17,2.28,0.36c0.58,0.14,1.17,0.33,1.75,0.54
						c0.21,0.08,0.41,0.16,0.61,0.24c0.79,0.33,1.56,0.72,2.28,1.15c0.72,0.44,1.39,0.92,1.97,1.42c-0.02-0.02-0.04-0.04-0.06-0.06
						l0,0c-0.21-0.21-0.42-0.4-0.63-0.6l0,0c-0.68-0.63-1.4-1.21-2.16-1.73c-0.99-0.7-2.04-1.3-3.11-1.79
						c-0.4-0.18-0.8-0.35-1.2-0.5c-0.66-0.24-1.32-0.45-1.98-0.6c-1.04-0.24-2.08-0.38-3.09-0.4c-2.07-0.03-3.84,0.41-5.29,1.19
						c-1.33,0.71-2.38,1.71-3.13,2.88c-0.34,0.53-0.63,1.1-0.85,1.71c-0.23,0.62-0.4,1.27-0.5,1.95c-0.19,1.25-0.16,2.59,0.11,3.99
						l0,0l0,0l-1.46-0.43l0,0L119,18.61l0,0l-0.08-0.02l5.05,9.74L124.34,27.4z M126.35,20.85l-2.42,7.07l-4.82-9.19l1.37,0.4
						l0.12,0.04l-0.03-0.13c-0.26-1.38-0.29-2.71-0.1-3.96c0.2-1.34,0.65-2.56,1.34-3.62c0.78-1.2,1.82-2.16,3.1-2.85
						c0.74-0.39,1.54-0.7,2.39-0.89c0.9-0.21,1.86-0.31,2.86-0.29c1,0.02,2.03,0.15,3.07,0.4c0.66,0.15,1.32,0.36,1.98,0.6
						c0.4,0.15,0.8,0.31,1.2,0.49c1.07,0.49,2.11,1.08,3.1,1.78c0.55,0.39,1.08,0.8,1.6,1.24c-0.21-0.14-0.42-0.27-0.64-0.41
						c-0.72-0.44-1.49-0.82-2.29-1.15c-0.2-0.08-0.41-0.17-0.61-0.24c-0.58-0.22-1.18-0.4-1.76-0.54c-0.79-0.19-1.56-0.32-2.29-0.37
						l-0.06,0l-0.02,0c-0.01,0-0.03,0-0.04,0c-0.02,0-0.04,0-0.07,0c-0.02,0-0.04,0-0.06,0c-1.34-0.07-2.56,0.01-3.61,0.25
						c-0.96,0.22-1.81,0.56-2.52,1.03c-1.12,0.74-1.94,1.81-2.44,3.19c-0.36,1.01-0.56,2.2-0.59,3.56
						c-0.02,1.11,0.07,2.17,0.15,2.97l0.01,0.05l0.05,0.02L126.35,20.85L126.35,20.85z"/>
				</g>
			</g>
			<g>
				<g>
					<path class="st0" d="M124.7,24.78c0.02,0.01-0.13,0.31-0.4,0.79c-0.06,0.12-0.14,0.25-0.22,0.39
						c-0.03,0.07-0.13,0.19-0.26,0.16c-0.14-0.02-0.18-0.15-0.23-0.21c-0.19-0.3-0.41-0.63-0.63-0.98
						c-0.89-1.39-1.58-2.54-1.54-2.57c0.04-0.03,0.79,1.08,1.69,2.48c0.22,0.34,0.43,0.68,0.62,0.98c0.17,0.41,0.33-0.14,0.48-0.32
						C124.49,25.04,124.68,24.77,124.7,24.78z"/>
				</g>
			</g>
		</g>
		<g>
			<g>
				
					<linearGradient id="SVGID_00000150082310682741057730000017390309719409535145_" gradientUnits="userSpaceOnUse" x1="-612.5135" y1="-27.4378" x2="-615.7086" y2="-27.2441" gradientTransform="matrix(0.9374 0.3482 -0.3482 0.9374 700.3889 269.1132)">
					<stop  offset="0" style="stop-color:#FFFFFF"/>
					<stop  offset="0.0456" style="stop-color:#FEEDBD"/>
					<stop  offset="0.0926" style="stop-color:#FEDC80"/>
					<stop  offset="0.1357" style="stop-color:#FECF50"/>
					<stop  offset="0.1735" style="stop-color:#FDC62D"/>
					<stop  offset="0.2045" style="stop-color:#FDC018"/>
					<stop  offset="0.2247" style="stop-color:#FDBE10"/>
					<stop  offset="0.2716" style="stop-color:#F9A217"/>
					<stop  offset="0.3268" style="stop-color:#F5881E"/>
					<stop  offset="0.3596" style="stop-color:#F47E20"/>
					<stop  offset="0.4338" style="stop-color:#EA7420"/>
					<stop  offset="0.5602" style="stop-color:#CF5A1E"/>
					<stop  offset="0.7223" style="stop-color:#A42F1C"/>
					<stop  offset="0.7978" style="stop-color:#8D191B"/>
				</linearGradient>
				<polygon style="fill:url(#SVGID_00000150082310682741057730000017390309719409535145_);" points="134.55,28.98 132.85,29.93 
					131.3,29.52 132.98,28.52 				"/>
				
					<linearGradient id="SVGID_00000152944287613003743110000015175627226629829267_" gradientUnits="userSpaceOnUse" x1="-628.2276" y1="-26.2578" x2="-620.1933" y2="-26.8385" gradientTransform="matrix(0.9374 0.3482 -0.3482 0.9374 700.3889 269.1132)">
					<stop  offset="0" style="stop-color:#FFFFFF"/>
					<stop  offset="0.0456" style="stop-color:#FEEDBD"/>
					<stop  offset="0.0926" style="stop-color:#FEDC80"/>
					<stop  offset="0.1357" style="stop-color:#FECF50"/>
					<stop  offset="0.1735" style="stop-color:#FDC62D"/>
					<stop  offset="0.2045" style="stop-color:#FDC018"/>
					<stop  offset="0.2247" style="stop-color:#FDBE10"/>
					<stop  offset="0.3048" style="stop-color:#F9A217"/>
					<stop  offset="0.3992" style="stop-color:#F5881E"/>
					<stop  offset="0.4551" style="stop-color:#F47E20"/>
					<stop  offset="0.5132" style="stop-color:#EA7420"/>
					<stop  offset="0.612" style="stop-color:#CF5A1E"/>
					<stop  offset="0.7387" style="stop-color:#A42F1C"/>
					<stop  offset="0.7978" style="stop-color:#8D191B"/>
				</linearGradient>
				<polygon style="fill:url(#SVGID_00000152944287613003743110000015175627226629829267_);" points="129.14,27.39 127.55,28.55 
					125.47,28.01 127,26.76 				"/>
				
					<linearGradient id="SVGID_00000148642685742513435360000015411344759665608111_" gradientUnits="userSpaceOnUse" x1="-621.2877" y1="-37.0254" x2="-623.1191" y2="-27.1222" gradientTransform="matrix(0.9374 0.3482 -0.3482 0.9374 700.3889 269.1132)">
					<stop  offset="0.0506" style="stop-color:#FFFFFF"/>
					<stop  offset="0.1237" style="stop-color:#FFFCF8"/>
					<stop  offset="0.2313" style="stop-color:#FFF5E4"/>
					<stop  offset="0.3603" style="stop-color:#FFEAC4"/>
					<stop  offset="0.5045" style="stop-color:#FFD997"/>
					<stop  offset="0.5787" style="stop-color:#FFD07D"/>
					<stop  offset="0.7978" style="stop-color:#F47E20"/>
				</linearGradient>
				<polygon style="fill:url(#SVGID_00000148642685742513435360000015411344759665608111_);" points="127,26.76 125.47,28.01 
					128.16,20.45 129.59,19.17 				"/>
				
					<linearGradient id="SVGID_00000025416988850233221650000001120472486332411544_" gradientUnits="userSpaceOnUse" x1="-619.4464" y1="-17.3165" x2="-620.3179" y2="-29.8068" gradientTransform="matrix(0.9374 0.3482 -0.3482 0.9374 700.3889 269.1132)">
					<stop  offset="0" style="stop-color:#FFFFFF"/>
					<stop  offset="0.0456" style="stop-color:#FEEDBD"/>
					<stop  offset="0.0926" style="stop-color:#FEDC80"/>
					<stop  offset="0.1357" style="stop-color:#FECF50"/>
					<stop  offset="0.1735" style="stop-color:#FDC62D"/>
					<stop  offset="0.2045" style="stop-color:#FDC018"/>
					<stop  offset="0.2247" style="stop-color:#FDBE10"/>
					<stop  offset="0.3048" style="stop-color:#F9A217"/>
					<stop  offset="0.3992" style="stop-color:#F5881E"/>
					<stop  offset="0.4551" style="stop-color:#F47E20"/>
					<stop  offset="0.5132" style="stop-color:#EA7420"/>
					<stop  offset="0.612" style="stop-color:#CF5A1E"/>
					<stop  offset="0.7387" style="stop-color:#A42F1C"/>
					<stop  offset="0.7978" style="stop-color:#8D191B"/>
					<stop  offset="1" style="stop-color:#000000"/>
				</linearGradient>
				<path style="fill:url(#SVGID_00000025416988850233221650000001120472486332411544_);" d="M125.31,37.78
					c-0.57,0.27-1.31,0.34-1.91,0.58c1.58-0.31,2.71-1.26,3.42-2.59c0.81-1.53,1.06-3.03,0.95-4.88c-0.05-0.83-0.17-1.7-0.22-2.34
					l1.59-1.16c0.07,0.67,0.14,1.48,0.15,2.35c0.01,0.9-0.04,1.87-0.23,2.82c-0.19,0.99-0.54,1.98-1.12,2.84
					C127.23,36.47,126.4,37.27,125.31,37.78z"/>
				
					<linearGradient id="SVGID_00000174581879969613905890000008548589336942698119_" gradientUnits="userSpaceOnUse" x1="-634.1157" y1="-14.6826" x2="-615.9327" y2="-14.6826" gradientTransform="matrix(0.9374 0.3482 -0.3482 0.9374 700.3889 269.1132)">
					<stop  offset="0" style="stop-color:#FFFFFF"/>
					<stop  offset="0.0456" style="stop-color:#FEEDBD"/>
					<stop  offset="0.0926" style="stop-color:#FEDC80"/>
					<stop  offset="0.1357" style="stop-color:#FECF50"/>
					<stop  offset="0.1735" style="stop-color:#FDC62D"/>
					<stop  offset="0.2045" style="stop-color:#FDC018"/>
					<stop  offset="0.2247" style="stop-color:#FDBE10"/>
					<stop  offset="0.3048" style="stop-color:#F9A217"/>
					<stop  offset="0.3992" style="stop-color:#F5881E"/>
					<stop  offset="0.4551" style="stop-color:#F47E20"/>
					<stop  offset="0.5132" style="stop-color:#EA7420"/>
					<stop  offset="0.612" style="stop-color:#CF5A1E"/>
					<stop  offset="0.7387" style="stop-color:#A42F1C"/>
					<stop  offset="0.7978" style="stop-color:#8D191B"/>
				</linearGradient>
				<path style="fill:url(#SVGID_00000174581879969613905890000008548589336942698119_);" d="M128.88,38.85c0,0-1.63,1.24-3.98,1.58
					c-2.92,0.42-7.98-0.64-11.54-3.7c-0.93-0.8-1.41-1.31-2.28-2.17l0,0.01c0.88,0.88,1.83,1.68,2.84,2.38
					c0.99,0.7,2.03,1.3,3.11,1.78c1.05,0.48,2.11,0.85,3.19,1.1c1.04,0.24,2.07,0.38,3.09,0.4c0.33,0,0.65,0,0.96-0.02
					c0.31-0.02,0.61-0.05,0.9-0.09c0.29-0.04,0.67-0.32,0.94-0.37C126.39,39.69,128.63,38.93,128.88,38.85z"/>
				
					<radialGradient id="SVGID_00000088110276954412036550000015672943150307621799_" cx="-618.9321" cy="-39.3688" r="18.9475" gradientTransform="matrix(0.9374 0.3482 -0.3482 0.9374 700.3889 269.1132)" gradientUnits="userSpaceOnUse">
					<stop  offset="0.1292" style="stop-color:#FFFFFF"/>
					<stop  offset="0.573" style="stop-color:#FDBE10"/>
					<stop  offset="0.9157" style="stop-color:#F47E20"/>
				</radialGradient>
				<path style="fill:url(#SVGID_00000088110276954412036550000015672943150307621799_);" d="M129.56,20.07l5,8.91l-1.58-0.46
					c0.26,1.4,0.29,2.74,0.1,3.99c-0.2,1.33-0.65,2.57-1.35,3.65c-0.76,1.17-1.8,2.17-3.13,2.88c-1.45,0.78-3.23,1.22-5.29,1.19
					c-1.02-0.02-2.05-0.15-3.09-0.4c-1.08-0.25-2.14-0.62-3.19-1.1c-1.08-0.49-2.12-1.09-3.11-1.78c-1.01-0.71-1.97-1.51-2.84-2.38
					c0.58,0.51,1.24,0.99,1.97,1.42c0.72,0.43,1.48,0.82,2.27,1.14c0.78,0.32,1.57,0.59,2.37,0.79c0.77,0.19,1.54,0.32,2.27,0.36
					c0.02,0,0.04,0,0.07,0c0.02,0,0.04,0,0.06,0c0.03,0,0.05,0,0.07,0c0.02,0,0.04,0,0.06,0c2.81,0.14,4.75-0.38,6.08-1.26
					c1.23-0.81,1.97-1.94,2.41-3.15c0.41-1.14,0.56-2.38,0.58-3.53c0.02-1.1-0.07-2.14-0.15-2.96L127,26.76L129.56,20.07z"/>
				
					<linearGradient id="SVGID_00000090995909377238024360000015858344624196648884_" gradientUnits="userSpaceOnUse" x1="-617.5386" y1="-33.7247" x2="-618.5646" y2="-28.6631" gradientTransform="matrix(0.9374 0.3482 -0.3482 0.9374 700.3889 269.1132)">
					<stop  offset="0" style="stop-color:#FFFFFF"/>
					<stop  offset="6.607875e-03" style="stop-color:#FFFFFE"/>
					<stop  offset="0.3009" style="stop-color:#FFEFD5"/>
					<stop  offset="0.5335" style="stop-color:#FFE6BC"/>
					<stop  offset="0.6742" style="stop-color:#FFE2B3"/>
					<stop  offset="1" style="stop-color:#F8D278"/>
				</linearGradient>
				<path style="fill:url(#SVGID_00000090995909377238024360000015858344624196648884_);" d="M129.56,19.37l-1.54,5.79
					c2.01,1.39,4.14,3.69,5.16,6.49c0.06-1,0-2.05-0.2-3.13l1.58,0.46L129.56,19.37z"/>
				<g>
					
						<linearGradient id="SVGID_00000104703943375760122670000009855259314800091574_" gradientUnits="userSpaceOnUse" x1="-626.2277" y1="-12.6735" x2="-617.2342" y2="-32.74" gradientTransform="matrix(0.9374 0.3482 -0.3482 0.9374 700.3889 269.1132)">
						<stop  offset="0.5169" style="stop-color:#FFE2B3"/>
						<stop  offset="0.8764" style="stop-color:#FFFFFF"/>
						<stop  offset="1" style="stop-color:#FFE2B3"/>
					</linearGradient>
					<path style="fill:url(#SVGID_00000104703943375760122670000009855259314800091574_);" d="M129.14,20.17L127,26.76l0.08,0.02
						l0,0l0,0l0,0l2.06,0.6c0.08,0.83,0.17,1.86,0.15,2.96c-0.02,1.15-0.17,2.39-0.58,3.53c-0.01,0.03-0.02,0.06-0.03,0.08
						c-0.44,1.18-1.18,2.28-2.38,3.07c-1.34,0.89-3.28,1.41-6.08,1.26c-0.02,0-0.04,0-0.06,0c-0.02,0-0.04,0-0.07,0
						c-0.02,0-0.03,0-0.06,0c-0.02,0-0.04,0-0.06-0.01c-0.73-0.05-1.5-0.17-2.27-0.36c-0.58-0.14-1.17-0.33-1.75-0.54
						c-0.21-0.08-0.41-0.16-0.61-0.24c-0.79-0.33-1.56-0.72-2.27-1.14c-0.72-0.44-1.39-0.92-1.97-1.42
						c0.02,0.02,0.04,0.03,0.06,0.06l0,0c0.21,0.2,0.41,0.4,0.63,0.6l0,0c0.68,0.63,1.4,1.21,2.16,1.73c0.99,0.7,2.03,1.3,3.11,1.78
						c0.4,0.18,0.8,0.35,1.2,0.5c0.66,0.24,1.32,0.44,1.98,0.6c1.04,0.24,2.07,0.38,3.09,0.4c2.06,0.04,3.84-0.41,5.29-1.19
						c1.33-0.71,2.38-1.71,3.13-2.88c0.34-0.53,0.63-1.1,0.85-1.71c0.23-0.62,0.4-1.27,0.5-1.95c0.19-1.25,0.16-2.59-0.1-3.99l0,0
						l0,0l1.46,0.43l0,0l0.04,0.01l0,0l0.08,0.02l-5.05-9.74L129.14,20.17z M127.13,26.71l2.43-7.06l4.82,9.19L133,28.44l-0.12-0.03
						l0.02,0.12c0.26,1.38,0.29,2.71,0.11,3.96c-0.21,1.34-0.65,2.56-1.34,3.62c-0.78,1.2-1.83,2.17-3.11,2.86
						c-0.73,0.39-1.54,0.69-2.39,0.89c-0.9,0.21-1.86,0.31-2.86,0.29c-1-0.02-2.04-0.15-3.07-0.39c-0.66-0.16-1.32-0.36-1.98-0.6
						c-0.4-0.15-0.8-0.31-1.2-0.49c-1.07-0.49-2.11-1.08-3.1-1.78c-0.55-0.39-1.09-0.8-1.6-1.24c0.21,0.14,0.42,0.27,0.64,0.41
						c0.72,0.43,1.49,0.82,2.28,1.15c0.2,0.08,0.41,0.17,0.61,0.24c0.59,0.22,1.18,0.4,1.76,0.55c0.79,0.19,1.56,0.32,2.29,0.36
						l0.06,0h0.02c0.01,0,0.03,0,0.04,0c0.02,0,0.04,0,0.06,0.01c0.02,0,0.04,0,0.06,0c1.35,0.07,2.56-0.01,3.62-0.25
						c0.96-0.21,1.81-0.56,2.52-1.03c1.12-0.74,1.94-1.82,2.44-3.19c0.36-1,0.56-2.2,0.58-3.55c0.02-1.11-0.07-2.17-0.15-2.97
						l-0.01-0.05l-0.05-0.01L127.13,26.71L127.13,26.71z"/>
				</g>
			</g>
			<g>
				<g>
					<path class="st0" d="M128.78,22.79c-0.02-0.01,0.14-0.31,0.4-0.78c0.07-0.12,0.14-0.25,0.21-0.39
						c0.04-0.06,0.13-0.19,0.27-0.16c0.14,0.02,0.19,0.15,0.23,0.21c0.2,0.3,0.41,0.63,0.63,0.98c0.89,1.4,1.58,2.55,1.54,2.57
						c-0.04,0.02-0.79-1.09-1.68-2.48c-0.22-0.35-0.43-0.68-0.62-0.99c-0.17-0.4-0.33,0.14-0.48,0.32
						C128.99,22.53,128.8,22.8,128.78,22.79z"/>
				</g>
			</g>
		</g>
	</g>
	<g>
		<g>
			<path class="st0" d="M14.82,52.61c0.01,0.05,0.04,0.2,0.15,0.2c0.06,0,0.14-0.07,0.17-0.16l1.33-5.14c0.06-0.23,0.2-0.6,0.63-0.6
				c0.44,0,0.57,0.37,0.63,0.6l1.33,5.14c0.03,0.09,0.11,0.16,0.17,0.16c0.11,0,0.14-0.14,0.15-0.2l1.41-5.64h0.49l-1.48,5.77
				c-0.12,0.44-0.36,0.52-0.59,0.52c-0.43,0-0.55-0.31-0.62-0.57l-1.35-5.12c-0.01-0.04-0.04-0.18-0.14-0.18
				c-0.1,0-0.13,0.13-0.14,0.18l-1.35,5.12c-0.07,0.26-0.2,0.57-0.62,0.57c-0.23,0-0.47-0.09-0.59-0.52l-1.48-5.77h0.49L14.82,52.61
				z"/>
			<path class="st0" d="M21.74,46.97h0.46v1.51h1.73c0.47,0,0.83,0.09,1.09,0.34c0.34,0.32,0.41,0.77,0.41,1.25v3.13h-0.46v-3.18
				c0-0.2-0.02-0.58-0.23-0.83c-0.22-0.26-0.51-0.28-0.77-0.28H22.2v4.3h-0.46V46.97z"/>
			<path class="st0" d="M27.95,53.2c-0.38,0-0.88-0.1-1.25-0.58c-0.36-0.47-0.38-1.07-0.38-1.76c0-0.66,0.04-1.46,0.63-1.96
				c0.43-0.36,1.01-0.42,1.48-0.42c0.33,0,0.82,0.04,1.2,0.27c0.19,0.12,0.76,0.51,0.76,1.49c0,0.13-0.01,0.45-0.2,0.61
				C30.05,50.98,29.83,51,29.7,51h-2.87c-0.01,0.28,0.01,0.71,0.08,0.96c0.11,0.38,0.43,0.82,1.05,0.82h2.31v0.42H27.95z
				 M29.7,50.58c0.2,0,0.2-0.25,0.2-0.31c0-0.46-0.16-0.77-0.32-0.96c-0.34-0.4-0.8-0.41-1.22-0.41c-0.47,0-0.98,0.02-1.31,0.57
				c-0.19,0.31-0.21,0.65-0.22,1.11H29.7z"/>
			<path class="st0" d="M31.28,50.1c0-0.48,0.06-0.9,0.42-1.24c0.2-0.19,0.52-0.38,1.16-0.38h0.32v0.42h-0.28
				c-0.26,0-0.65,0.03-0.91,0.33c-0.2,0.24-0.24,0.6-0.24,0.98v2.99h-0.46V50.1z"/>
			<path class="st0" d="M35.16,53.2c-0.38,0-0.88-0.1-1.25-0.58c-0.36-0.47-0.38-1.07-0.38-1.76c0-0.66,0.04-1.46,0.63-1.96
				c0.43-0.36,1.01-0.42,1.48-0.42c0.33,0,0.82,0.04,1.2,0.27c0.19,0.12,0.76,0.51,0.76,1.49c0,0.13-0.01,0.45-0.2,0.61
				c-0.14,0.12-0.36,0.14-0.5,0.14h-2.87c-0.01,0.28,0.01,0.71,0.08,0.96c0.11,0.38,0.43,0.82,1.05,0.82h2.31v0.42H35.16z
				 M36.91,50.58c0.2,0,0.2-0.25,0.2-0.31c0-0.46-0.16-0.77-0.32-0.96c-0.34-0.4-0.8-0.41-1.22-0.41c-0.47,0-0.98,0.02-1.31,0.57
				c-0.19,0.31-0.21,0.65-0.22,1.11H36.91z"/>
			<path class="st0" d="M40.74,47.63v-0.66h0.5v0.66H40.74z M40.76,48.48h0.46v4.71h-0.46V48.48z"/>
			<path class="st0" d="M45.86,53.03c-0.13,0.16-0.36,0.17-0.52,0.17h-1.47c-0.46,0-1.18-0.11-1.53-0.95
				c-0.19-0.45-0.21-1.01-0.21-1.53c0-0.52,0.03-1.05,0.36-1.53c0.43-0.62,1.08-0.7,1.6-0.7h1.43v-1.51h0.46v5.54
				C45.98,52.69,45.95,52.91,45.86,53.03z M43.98,48.9c-0.35,0-0.85,0.07-1.12,0.53c-0.16,0.27-0.23,0.68-0.23,1.35
				c0,0.85,0.09,1.14,0.13,1.26c0.24,0.65,0.85,0.73,1.22,0.73h1.18c0.05,0,0.21,0,0.28-0.07c0.05-0.06,0.07-0.23,0.07-0.33V48.9
				H43.98z"/>
			<path class="st0" d="M48.5,53.2c-0.38,0-0.88-0.1-1.25-0.58c-0.36-0.47-0.38-1.07-0.38-1.76c0-0.66,0.04-1.46,0.63-1.96
				c0.43-0.36,1.01-0.42,1.48-0.42c0.33,0,0.82,0.04,1.2,0.27c0.19,0.12,0.76,0.51,0.76,1.49c0,0.13-0.01,0.45-0.2,0.61
				C50.6,50.98,50.38,51,50.25,51h-2.87c-0.01,0.28,0.01,0.71,0.08,0.96c0.11,0.38,0.43,0.82,1.05,0.82h2.31v0.42H48.5z
				 M50.25,50.58c0.21,0,0.2-0.25,0.2-0.31c0-0.46-0.16-0.77-0.32-0.96c-0.34-0.4-0.8-0.41-1.22-0.41c-0.47,0-0.98,0.02-1.31,0.57
				c-0.19,0.31-0.21,0.65-0.22,1.11H50.25z"/>
			<path class="st0" d="M54.33,48.48c0.32,0,0.64,0.12,0.83,0.33c0.25,0.27,0.28,0.66,0.28,0.94v2.82c0,0.12-0.01,0.35-0.16,0.49
				c-0.14,0.13-0.37,0.13-0.53,0.13h-1.81c-0.27,0-0.6-0.01-0.85-0.21c-0.39-0.32-0.42-0.96-0.42-1.25c0-0.38,0.05-0.83,0.39-1.11
				c0.26-0.21,0.61-0.25,0.88-0.25h2.05v-0.7c0-0.15-0.06-0.42-0.18-0.56c-0.1-0.12-0.28-0.21-0.5-0.21h-2.29v-0.42H54.33z
				 M52.82,50.8c-0.28,0-0.44,0.13-0.52,0.23c-0.12,0.15-0.15,0.4-0.15,0.73c0,0.28,0.03,0.62,0.19,0.82c0.1,0.12,0.27,0.2,0.46,0.2
				h1.9c0.05,0,0.14,0,0.2-0.05c0.06-0.05,0.06-0.1,0.06-0.16V50.8H52.82z"/>
			<path class="st0" d="M56.41,52.78h2.7c0.28,0,0.46-0.1,0.55-0.22c0.08-0.12,0.12-0.38,0.12-0.54c0-0.27-0.11-0.42-0.18-0.49
				c-0.15-0.14-0.43-0.21-1.11-0.37l-0.82-0.19c-0.72-0.17-0.98-0.4-1.09-0.53c-0.2-0.23-0.26-0.52-0.26-0.78
				c0-0.31,0.07-0.55,0.24-0.77c0.29-0.38,0.69-0.41,1.14-0.41h2.26v0.42h-2.45c-0.11,0-0.37,0.01-0.53,0.16
				c-0.16,0.16-0.17,0.44-0.17,0.56c0,0.16,0.02,0.44,0.2,0.61c0.16,0.16,0.65,0.28,0.81,0.32l0.85,0.2
				c0.57,0.13,0.98,0.22,1.25,0.44c0.29,0.23,0.34,0.51,0.34,0.82c0,0.33-0.06,0.77-0.41,1.01c-0.23,0.16-0.55,0.18-0.74,0.18h-2.72
				V52.78z"/>
			<path class="st0" d="M63.89,46.97v1.51h1.48c0.51,0,1.21,0.09,1.62,0.77c0.3,0.51,0.32,1.16,0.32,1.65
				c0,0.43-0.02,1.03-0.31,1.52c-0.41,0.69-1.09,0.77-1.6,0.77h-1.01c-0.28,0-0.56-0.01-0.73-0.14c-0.2-0.16-0.22-0.43-0.22-0.6
				v-5.49H63.89z M63.89,52.42c0,0.1,0,0.21,0.05,0.28c0.06,0.07,0.2,0.08,0.28,0.08h1.08c0.36,0,1-0.03,1.32-0.62
				c0.16-0.29,0.2-0.68,0.2-1.12c0-0.46-0.04-1.13-0.19-1.46c-0.27-0.6-0.85-0.68-1.29-0.68h-1.44V52.42z"/>
			<path class="st0" d="M69.64,53.2c-0.38,0-0.88-0.1-1.25-0.58c-0.36-0.47-0.38-1.07-0.38-1.76c0-0.66,0.04-1.46,0.63-1.96
				c0.43-0.36,1.01-0.42,1.48-0.42c0.33,0,0.82,0.04,1.2,0.27c0.19,0.12,0.76,0.51,0.76,1.49c0,0.13-0.01,0.45-0.2,0.61
				c-0.14,0.12-0.36,0.14-0.5,0.14h-2.87c-0.01,0.28,0.01,0.71,0.08,0.96c0.11,0.38,0.43,0.82,1.05,0.82h2.31v0.42H69.64z
				 M71.39,50.58c0.21,0,0.2-0.25,0.2-0.31c0-0.46-0.16-0.77-0.32-0.96c-0.34-0.4-0.8-0.41-1.22-0.41c-0.47,0-0.98,0.02-1.31,0.57
				c-0.19,0.31-0.21,0.65-0.22,1.11H71.39z"/>
			<path class="st0" d="M74.61,53.2c-0.67,0-1.11-0.27-1.39-0.6c-0.37-0.44-0.43-1-0.43-1.7c0-0.64,0.04-1.39,0.53-1.9
				c0.28-0.28,0.73-0.52,1.47-0.52h1.59v0.42h-1.65c-0.76,0-1.22,0.4-1.36,0.96c-0.06,0.26-0.09,0.87-0.09,1.1
				c0,0.31,0.04,0.85,0.16,1.11c0.28,0.62,0.96,0.7,1.39,0.7h1.65v0.42H74.61z"/>
			<path class="st0" d="M77.44,48.95c0.46-0.45,1.15-0.52,1.74-0.52s1.28,0.06,1.74,0.52c0.52,0.51,0.59,1.34,0.59,1.87
				c0,1.02-0.28,1.6-0.59,1.9c-0.52,0.51-1.33,0.53-1.74,0.53s-1.23-0.03-1.74-0.53c-0.3-0.3-0.59-0.88-0.59-1.9
				C76.86,50.29,76.93,49.45,77.44,48.95z M77.74,52.38c0.37,0.41,0.97,0.45,1.45,0.45s1.08-0.04,1.45-0.45
				c0.39-0.43,0.38-1.14,0.38-1.52c0-0.41,0-1.16-0.37-1.57c-0.36-0.4-1.01-0.44-1.46-0.44s-1.09,0.04-1.46,0.44
				c-0.37,0.42-0.37,1.17-0.37,1.57C77.35,51.24,77.34,51.95,77.74,52.38z"/>
			<path class="st0" d="M82.41,49.28c0-0.18,0.02-0.38,0.11-0.53c0.15-0.23,0.4-0.26,0.53-0.26h4.38c0.37,0,0.74,0.07,0.99,0.29
				c0.29,0.26,0.36,0.68,0.36,1.07v3.35h-0.46v-3.39c0-0.21-0.03-0.49-0.2-0.68c-0.2-0.21-0.5-0.23-0.7-0.23h-1.59v4.3h-0.46v-4.3
				h-2.21c-0.08,0-0.17,0.01-0.23,0.08c-0.05,0.06-0.05,0.16-0.05,0.25v3.97h-0.46V49.28z"/>
			<path class="st0" d="M91.3,53.2c-0.38,0-0.88-0.1-1.25-0.58c-0.36-0.47-0.38-1.07-0.38-1.76c0-0.66,0.04-1.46,0.63-1.96
				c0.43-0.36,1.01-0.42,1.48-0.42c0.33,0,0.82,0.04,1.2,0.27c0.19,0.12,0.76,0.51,0.76,1.49c0,0.13-0.01,0.45-0.2,0.61
				C93.4,50.98,93.18,51,93.04,51h-2.87c-0.01,0.28,0.01,0.71,0.08,0.96c0.11,0.38,0.43,0.82,1.05,0.82h2.31v0.42H91.3z
				 M93.04,50.58c0.2,0,0.2-0.25,0.2-0.31c0-0.46-0.16-0.77-0.32-0.96c-0.34-0.4-0.8-0.41-1.22-0.41c-0.47,0-0.98,0.02-1.31,0.57
				c-0.19,0.31-0.21,0.65-0.22,1.11H93.04z"/>
			<path class="st0" d="M98.99,52.66c0.04,0.12,0.11,0.13,0.15,0.13c0.04,0,0.11-0.02,0.15-0.13l2.19-5.68h0.54l-2.34,5.89
				c-0.06,0.16-0.24,0.41-0.54,0.41c-0.08,0-0.39-0.02-0.54-0.41l-2.34-5.89h0.54L98.99,52.66z"/>
			<path class="st0" d="M102.47,47.63v-0.66h0.5v0.66H102.47z M102.49,48.48h0.46v4.71h-0.46V48.48z"/>
			<path class="st0" d="M105.5,52.59c0.03,0.06,0.09,0.2,0.13,0.2c0.04,0,0.11-0.13,0.13-0.2l1.52-4.11h0.47l-1.64,4.36
				c-0.12,0.34-0.31,0.41-0.49,0.41c-0.18,0-0.36-0.07-0.49-0.41l-1.64-4.36h0.47L105.5,52.59z"/>
			<path class="st0" d="M108.29,47.63v-0.66h0.5v0.66H108.29z M108.31,48.48h0.46v4.71h-0.46V48.48z"/>
			<path class="st0" d="M113.41,53.03c-0.13,0.16-0.36,0.17-0.52,0.17h-1.47c-0.46,0-1.18-0.11-1.53-0.95
				c-0.19-0.45-0.21-1.01-0.21-1.53c0-0.52,0.03-1.05,0.36-1.53c0.43-0.62,1.08-0.7,1.6-0.7h1.43v-1.51h0.46v5.54
				C113.53,52.69,113.5,52.91,113.41,53.03z M111.53,48.9c-0.35,0-0.85,0.07-1.12,0.53c-0.16,0.27-0.23,0.68-0.23,1.35
				c0,0.85,0.09,1.14,0.13,1.26c0.24,0.65,0.85,0.73,1.22,0.73h1.18c0.05,0,0.21,0,0.28-0.07c0.05-0.06,0.07-0.23,0.07-0.33V48.9
				H111.53z"/>
		</g>
	</g>
</g>
</svg>
